<?xml version="1.0" standalone="no"?>
<!DOCTYPE svg PUBLIC "-//W3C//DTD SVG 20010904//EN"
 "http://www.w3.org/TR/2001/REC-SVG-20010904/DTD/svg10.dtd">
<svg version="1.0" xmlns="http://www.w3.org/2000/svg"
 width="150.000000pt" height="150.000000pt" viewBox="0 0 150.000000 150.000000"
 preserveAspectRatio="xMidYMid meet">
<metadata>
Created by potrace 1.14, written by Peter Selinger 2001-2017
</metadata>
<g transform="translate(0.000000,150.000000) scale(0.100000,-0.100000)"
fill="#000000" stroke="none">
<path d="M940 1393 c0 -3 7 -14 16 -24 33 -37 -7 -59 -109 -59 -78 0 -158 -55
-192 -131 l-18 -39 -32 20 c-36 22 -85 26 -103 8 -19 -19 -14 -28 16 -29 20
-1 22 -2 7 -6 -31 -8 -45 -23 -45 -49 0 -27 3 -28 32 -13 28 15 42 -1 33 -40
-5 -26 -9 -29 -28 -22 -12 5 -44 12 -71 15 -27 4 -65 16 -85 27 -30 16 -38 17
-56 5 -28 -19 -30 -47 -4 -80 30 -39 77 -56 149 -56 33 0 60 -2 60 -5 0 -3 -9
-23 -20 -45 -26 -50 -25 -62 4 -97 26 -32 27 -29 -27 -148 -38 -83 -41 -97
-42 -177 l0 -86 -52 -7 c-29 -3 -53 -10 -53 -15 0 -4 -11 -15 -24 -24 -22 -14
-27 -14 -40 -1 -8 9 -16 11 -18 5 -2 -7 -11 -5 -23 4 -20 15 -20 15 1 36 16
16 28 20 44 15 19 -6 21 -12 16 -39 -4 -22 -3 -27 4 -16 5 8 10 25 10 36 0 36
-55 47 -83 16 -26 -29 -20 -50 18 -66 38 -16 48 -32 13 -21 -17 6 -20 4 -15
-9 4 -9 2 -16 -4 -16 -6 0 -9 -6 -6 -14 3 -8 -5 -18 -19 -25 -14 -6 -24 -19
-24 -31 0 -22 46 -90 61 -90 5 0 16 14 25 31 15 30 15 33 -6 61 -20 27 -20 48
1 48 5 0 9 -11 9 -23 0 -24 27 -57 47 -57 19 0 42 46 36 71 -3 13 -15 32 -27
41 -21 17 -21 17 -1 32 11 8 22 10 23 5 6 -15 22 -10 22 7 0 14 3 14 15 4 14
-12 20 -7 16 14 -3 15 91 -2 134 -23 43 -23 76 -26 105 -11 24 13 50 3 50 -20
0 -10 6 -21 13 -24 8 -3 7 -9 -7 -20 -18 -15 -18 -16 10 -26 55 -21 102 24
112 105 4 42 7 45 48 61 24 9 44 21 44 25 0 12 -7 11 -41 -7 -17 -8 -37 -13
-45 -10 -28 11 -13 34 33 51 76 29 153 111 153 162 0 10 -14 -5 -30 -34 -31
-54 -81 -94 -158 -128 -56 -24 -69 -41 -40 -49 l23 -6 -25 -14 c-14 -8 -53
-14 -93 -14 l-69 0 24 26 c14 15 35 43 47 62 22 34 22 34 -16 -6 -65 -70 -121
-96 -167 -78 -24 9 -19 37 15 80 l30 39 -28 7 c-15 5 -40 5 -56 2 -26 -5 -27
-5 -16 23 17 46 50 93 64 93 8 0 18 -18 23 -42 l9 -43 12 45 c7 25 26 69 42
97 37 66 37 73 0 34 -16 -17 -34 -31 -40 -31 -12 0 -13 6 -12 100 0 53 -1 60
-10 41 -9 -23 -11 -24 -27 -8 -14 15 -15 21 -3 50 59 141 75 223 47 246 -11
10 -20 10 -37 1 -19 -11 -21 -10 -16 5 4 9 7 19 7 21 0 8 42 4 61 -6 27 -15
24 -1 -8 32 -18 19 -22 28 -12 28 17 0 76 -34 106 -62 l22 -20 20 33 c12 19
21 39 21 45 0 26 50 57 100 62 l51 5 -36 -36 c-19 -19 -35 -40 -35 -47 0 -14
38 -4 63 18 9 8 17 11 17 5 0 -6 -20 -23 -45 -38 -24 -16 -47 -35 -49 -42 -3
-8 14 0 38 17 46 31 70 36 95 21 10 -7 7 -12 -15 -22 -16 -8 -30 -24 -32 -35
-3 -20 0 -21 74 -16 89 6 97 -12 10 -21 -30 -3 -63 -10 -73 -16 -14 -8 -8 -10
30 -11 46 0 65 -14 30 -23 -14 -3 -12 -6 10 -15 31 -13 33 -20 12 -48 -15 -20
-20 -54 -7 -54 4 1 16 15 27 33 19 30 116 97 139 97 12 0 -85 -90 -96 -90 -14
0 -8 -20 5 -20 7 0 22 -7 33 -15 18 -15 18 -15 -8 -9 -29 7 -39 -9 -14 -23 14
-9 36 -46 36 -62 0 -6 -11 -11 -25 -11 -30 0 -29 2 -9 -46 9 -20 14 -51 11
-68 -3 -20 1 -38 11 -48 14 -16 14 -18 -1 -18 -20 0 -22 -11 -5 -28 9 -9 8
-12 -5 -12 -13 0 -17 -9 -17 -42 0 -33 -3 -39 -12 -30 -7 7 -16 12 -20 12 -12
0 -10 -48 2 -55 17 -10 11 -25 -12 -34 -23 -9 -55 -88 -50 -121 2 -8 -6 -4
-17 10 l-21 25 0 -26 c0 -37 -10 -42 -37 -17 -29 27 -29 16 0 -42 26 -53 46
-59 135 -36 33 9 91 16 128 17 74 0 75 -2 -20 37 -42 18 -71 53 -62 77 8 23
24 18 58 -15 17 -17 33 -29 36 -26 2 3 -3 36 -12 73 -9 38 -16 83 -16 101 0
29 3 32 33 32 17 0 56 -9 85 -20 29 -11 62 -20 75 -19 17 0 13 3 -13 12 -47
16 -117 54 -126 69 -4 6 -6 33 -5 59 1 26 -3 66 -9 90 -8 30 -9 44 -1 47 6 2
8 16 4 33 -3 18 -1 29 6 29 19 0 12 16 -11 28 -18 8 -19 11 -5 11 21 1 22 8 2
27 -25 25 -17 39 29 52 77 20 153 105 125 139 -18 21 -77 12 -177 -27 -80 -31
-84 -31 -97 -13 -12 16 -11 20 6 33 24 19 16 30 -23 30 -26 0 -28 2 -22 28 26
108 50 124 190 126 99 1 107 3 125 25 17 21 18 26 5 39 -12 13 -17 12 -37 -2
-31 -21 -48 -21 -151 6 -78 20 -88 25 -88 45 0 30 -34 63 -65 63 -14 0 -25 -3
-25 -7z m66 -28 c9 -14 14 -32 10 -40 -8 -21 -27 -19 -19 3 3 9 3 14 -2 10 -6
-6 -35 33 -35 48 0 14 32 0 46 -21z m-101 -96 c-29 -26 -41 -30 -67 -25 -44 9
-103 -10 -127 -41 -25 -31 -28 -13 -5 23 29 44 98 69 197 73 l38 1 -36 -31z
m215 6 c72 -19 125 -19 155 1 24 16 25 15 25 -5 0 -11 -6 -22 -12 -22 -37 -4
-140 3 -190 13 -72 13 -110 0 -132 -47 -9 -18 -16 -37 -16 -42 -1 -24 -17 -34
-42 -24 -24 9 -26 13 -18 48 5 22 22 49 40 66 25 22 40 27 83 27 28 0 77 -7
107 -15z m-41 -41 c-25 -7 -59 -26 -74 -41 l-28 -28 8 25 c14 47 34 60 89 59
l51 0 -46 -15z m-566 -239 c9 -4 17 -16 17 -26 0 -16 -4 -17 -25 -9 -39 15
-83 39 -89 49 -6 8 64 -2 97 -14z m-53 -616 c0 -6 -4 -7 -10 -4 -5 3 -10 11
-10 16 0 6 5 7 10 4 6 -3 10 -11 10 -16z m330 -51 c0 -17 -3 -19 -12 -10 -16
16 -33 16 -20 0 14 -18 13 -73 -1 -59 -17 17 -29 13 -25 -11 2 -11 -2 -23 -8
-25 -6 -2 -9 7 -6 25 2 18 -3 36 -16 52 l-20 25 51 11 c29 7 53 12 55 13 1 0
2 -9 2 -21z m-167 -10 c-16 -8 -32 -8 -55 0 -32 9 -31 10 22 10 46 1 52 -1 33
-10z m-333 -57 c7 10 11 10 24 0 25 -21 18 -81 -9 -81 -19 0 -26 14 -30 58 -1
20 0 31 2 23 4 -11 7 -11 13 0z m-70 -56 c1 20 30 -30 30 -51 0 -36 -20 -39
-46 -8 -27 33 -29 45 -12 62 9 9 14 9 20 -1 4 -6 8 -7 8 -2z"/>
<path d="M667 995 c3 -8 9 -12 14 -9 12 7 11 11 -5 17 -10 4 -13 1 -9 -8z"/>
<path d="M696 974 c-18 -18 -21 -34 -6 -34 6 0 10 7 10 16 0 8 4 13 9 10 5 -3
11 1 15 9 7 20 -8 19 -28 -1z"/>
<path d="M808 883 c-19 -22 -36 -109 -19 -99 6 4 18 0 27 -8 19 -20 68 -21 83
-2 7 8 11 30 9 48 -2 28 -9 35 -38 45 l-35 12 33 0 c17 1 32 6 32 11 0 18 -76
11 -92 -7z"/>
<path d="M575 420 c4 -6 11 -8 16 -5 14 9 11 15 -7 15 -8 0 -12 -5 -9 -10z"/>
<path d="M547 394 c-8 -8 1 -24 14 -24 5 0 9 7 9 15 0 15 -12 20 -23 9z"/>
</g>
</svg>
